<svg xmlns="http://www.w3.org/2000/svg" viewBox="0 0 760 520" width="760" height="520" role="img" aria-label="Dependency drift versus viability quadrant"><rect width="760" height="520" fill="#0f1319"/><text x="62" y="22" font-size="13" fill="#aab3c2" text-anchor="start" font-family="ui-monospace, monospace">package-lock.json — drift × viability (6.04 libyears)</text><rect x="62" y="44" width="476.59" height="212" fill="#4ec9a4" fill-opacity="0.06"/><rect x="538.59" y="44" width="197.41" height="212" fill="#e8b73a" fill-opacity="0.06"/><rect x="62" y="256" width="476.59" height="212" fill="#5aa9e6" fill-opacity="0.06"/><rect x="538.59" y="256" width="197.41" height="212" fill="#f2665e" fill-opacity="0.06"/><text x="70" y="60" font-size="10" fill="#4ec9a4" text-anchor="start" font-family="ui-monospace, monospace" opacity="0.75">healthy</text><text x="546.59" y="60" font-size="10" fill="#e8b73a" text-anchor="start" font-family="ui-monospace, monospace" opacity="0.75">upgrade — behind but alive</text><text x="70" y="272" font-size="10" fill="#5aa9e6" text-anchor="start" font-family="ui-monospace, monospace" opacity="0.75">watch — current but fading</text><text x="546.59" y="272" font-size="10" fill="#f2665e" text-anchor="start" font-family="ui-monospace, monospace" opacity="0.75">REPLACE — behind and unmaintained</text><line x1="62" y1="44" x2="62" y2="468" stroke="#20252e" stroke-width="1"/><line x1="62" y1="468" x2="736" y2="468" stroke="#20252e" stroke-width="1"/><line x1="538.59" y1="44" x2="538.59" y2="468" stroke="#6b7585" stroke-width="1" stroke-dasharray="4 3"/><line x1="62" y1="256" x2="736" y2="256" stroke="#6b7585" stroke-width="1" stroke-dasharray="4 3"/><text x="62" y="484" font-size="10" fill="#6b7585" text-anchor="middle" font-family="ui-monospace, monospace">0</text><text x="399" y="484" font-size="10" fill="#6b7585" text-anchor="middle" font-family="ui-monospace, monospace">0.5</text><text x="538.59" y="484" font-size="10" fill="#6b7585" text-anchor="middle" font-family="ui-monospace, monospace">1</text><text x="645.7" y="484" font-size="10" fill="#6b7585" text-anchor="middle" font-family="ui-monospace, monospace">1.5</text><text x="736" y="484" font-size="10" fill="#6b7585" text-anchor="middle" font-family="ui-monospace, monospace">2</text><text x="52" y="471.5" font-size="10" fill="#6b7585" text-anchor="end" font-family="ui-monospace, monospace">0.00</text><text x="52" y="365.5" font-size="10" fill="#6b7585" text-anchor="end" font-family="ui-monospace, monospace">0.25</text><text x="52" y="259.5" font-size="10" fill="#6b7585" text-anchor="end" font-family="ui-monospace, monospace">0.50</text><text x="52" y="153.5" font-size="10" fill="#6b7585" text-anchor="end" font-family="ui-monospace, monospace">0.75</text><text x="52" y="47.5" font-size="10" fill="#6b7585" text-anchor="end" font-family="ui-monospace, monospace">1.00</text><text x="399" y="508" font-size="11" fill="#aab3c2" text-anchor="middle" font-family="ui-monospace, monospace">libyears behind →</text><text x="16" y="256" font-size="11" fill="#aab3c2" text-anchor="middle" font-family="ui-monospace, monospace" transform="rotate(-90 16 256)">viability →</text><circle cx="129.4" cy="44" r="4.5" fill="#4ec9a4" fill-opacity="0.45" stroke="#4ec9a4" stroke-width="1"/><circle cx="129.4" cy="44" r="4.5" fill="#4ec9a4" fill-opacity="0.45" stroke="#4ec9a4" stroke-width="1"/><circle cx="62" cy="44" r="4.5" fill="#4ec9a4" fill-opacity="0.45" stroke="#4ec9a4" stroke-width="1"/><circle cx="62" cy="44" r="4.5" fill="#4ec9a4" fill-opacity="0.45" stroke="#4ec9a4" stroke-width="1"/><circle cx="62" cy="44" r="4.5" fill="#4ec9a4" fill-opacity="0.45" stroke="#4ec9a4" stroke-width="1"/><circle cx="62" cy="44" r="4.5" fill="#4ec9a4" fill-opacity="0.45" stroke="#4ec9a4" stroke-width="1"/><circle cx="62" cy="44" r="4.5" fill="#4ec9a4" fill-opacity="0.45" stroke="#4ec9a4" stroke-width="1"/><circle cx="62" cy="44" r="4.5" fill="#4ec9a4" fill-opacity="0.45" stroke="#4ec9a4" stroke-width="1"/><circle cx="62" cy="44" r="4.5" fill="#4ec9a4" fill-opacity="0.45" stroke="#4ec9a4" stroke-width="1"/><circle cx="62" cy="44" r="4.5" fill="#4ec9a4" fill-opacity="0.45" stroke="#4ec9a4" stroke-width="1"/><circle cx="62" cy="44" r="4.5" fill="#4ec9a4" fill-opacity="0.45" stroke="#4ec9a4" stroke-width="1"/><circle cx="62" cy="44" r="4.5" fill="#4ec9a4" fill-opacity="0.45" stroke="#4ec9a4" stroke-width="1"/><circle cx="62" cy="44" r="4.5" fill="#4ec9a4" fill-opacity="0.45" stroke="#4ec9a4" stroke-width="1"/><circle cx="62" cy="44" r="4.5" fill="#4ec9a4" fill-opacity="0.45" stroke="#4ec9a4" stroke-width="1"/><circle cx="62" cy="44" r="4.5" fill="#4ec9a4" fill-opacity="0.45" stroke="#4ec9a4" stroke-width="1"/><circle cx="62" cy="44" r="4.5" fill="#4ec9a4" fill-opacity="0.45" stroke="#4ec9a4" stroke-width="1"/><circle cx="62" cy="44" r="4.5" fill="#4ec9a4" fill-opacity="0.45" stroke="#4ec9a4" stroke-width="1"/><circle cx="62" cy="44" r="4.5" fill="#4ec9a4" fill-opacity="0.45" stroke="#4ec9a4" stroke-width="1"/><circle cx="62" cy="44" r="4.5" fill="#4ec9a4" fill-opacity="0.45" stroke="#4ec9a4" stroke-width="1"/><circle cx="62" cy="44" r="4.5" fill="#4ec9a4" fill-opacity="0.45" stroke="#4ec9a4" stroke-width="1"/><circle cx="62" cy="44" r="4.5" fill="#4ec9a4" fill-opacity="0.45" stroke="#4ec9a4" stroke-width="1"/><circle cx="62" cy="44" r="4.5" fill="#4ec9a4" fill-opacity="0.45" stroke="#4ec9a4" stroke-width="1"/><circle cx="62" cy="44" r="4.5" fill="#4ec9a4" fill-opacity="0.45" stroke="#4ec9a4" stroke-width="1"/><circle cx="62" cy="44" r="4.5" fill="#4ec9a4" fill-opacity="0.45" stroke="#4ec9a4" stroke-width="1"/><circle cx="62" cy="44" r="4.5" fill="#4ec9a4" fill-opacity="0.45" stroke="#4ec9a4" stroke-width="1"/><circle cx="62" cy="44" r="4.5" fill="#4ec9a4" fill-opacity="0.45" stroke="#4ec9a4" stroke-width="1"/><circle cx="62" cy="44" r="4.5" fill="#4ec9a4" fill-opacity="0.45" stroke="#4ec9a4" stroke-width="1"/><circle cx="62" cy="44" r="4.5" fill="#4ec9a4" fill-opacity="0.45" stroke="#4ec9a4" stroke-width="1"/><circle cx="62" cy="44" r="4.5" fill="#4ec9a4" fill-opacity="0.45" stroke="#4ec9a4" stroke-width="1"/><circle cx="62" cy="44" r="4.5" fill="#4ec9a4" fill-opacity="0.45" stroke="#4ec9a4" stroke-width="1"/><circle cx="62" cy="44" r="4.5" fill="#4ec9a4" fill-opacity="0.45" stroke="#4ec9a4" stroke-width="1"/><circle cx="129.4" cy="44" r="4.5" fill="#4ec9a4" fill-opacity="0.45" stroke="#4ec9a4" stroke-width="1"/><circle cx="109.66" cy="44" r="4.5" fill="#4ec9a4" fill-opacity="0.45" stroke="#4ec9a4" stroke-width="1"/><circle cx="109.66" cy="44" r="4.5" fill="#4ec9a4" fill-opacity="0.45" stroke="#4ec9a4" stroke-width="1"/><circle cx="109.66" cy="44" r="4.5" fill="#4ec9a4" fill-opacity="0.45" stroke="#4ec9a4" stroke-width="1"/><circle cx="109.66" cy="44" r="4.5" fill="#4ec9a4" fill-opacity="0.45" stroke="#4ec9a4" stroke-width="1"/><circle cx="109.66" cy="44" r="4.5" fill="#4ec9a4" fill-opacity="0.45" stroke="#4ec9a4" stroke-width="1"/><circle cx="109.66" cy="44" r="4.5" fill="#4ec9a4" fill-opacity="0.45" stroke="#4ec9a4" stroke-width="1"/><circle cx="109.66" cy="44" r="4.5" fill="#4ec9a4" fill-opacity="0.45" stroke="#4ec9a4" stroke-width="1"/><circle cx="109.66" cy="44" r="4.5" fill="#4ec9a4" fill-opacity="0.45" stroke="#4ec9a4" stroke-width="1"/><circle cx="109.66" cy="44" r="4.5" fill="#4ec9a4" fill-opacity="0.45" stroke="#4ec9a4" stroke-width="1"/><circle cx="109.66" cy="44" r="4.5" fill="#4ec9a4" fill-opacity="0.45" stroke="#4ec9a4" stroke-width="1"/><circle cx="109.66" cy="44" r="4.5" fill="#4ec9a4" fill-opacity="0.45" stroke="#4ec9a4" stroke-width="1"/><circle cx="109.66" cy="44" r="4.5" fill="#4ec9a4" fill-opacity="0.45" stroke="#4ec9a4" stroke-width="1"/><circle cx="109.66" cy="44" r="4.5" fill="#4ec9a4" fill-opacity="0.45" stroke="#4ec9a4" stroke-width="1"/><circle cx="109.66" cy="44" r="4.5" fill="#4ec9a4" fill-opacity="0.45" stroke="#4ec9a4" stroke-width="1"/><circle cx="109.66" cy="44" r="4.5" fill="#4ec9a4" fill-opacity="0.45" stroke="#4ec9a4" stroke-width="1"/><circle cx="62" cy="44" r="4.5" fill="#4ec9a4" fill-opacity="0.45" stroke="#4ec9a4" stroke-width="1"/><circle cx="62" cy="60.96" r="4.5" fill="#4ec9a4" fill-opacity="0.45" stroke="#4ec9a4" stroke-width="1"/><circle cx="62" cy="44" r="4.5" fill="#4ec9a4" fill-opacity="0.45" stroke="#4ec9a4" stroke-width="1"/><circle cx="62" cy="77.92" r="4.5" fill="#4ec9a4" fill-opacity="0.45" stroke="#4ec9a4" stroke-width="1"/><circle cx="62" cy="332.32" r="4.5" fill="#5aa9e6" fill-opacity="0.45" stroke="#5aa9e6" stroke-width="1"/><text x="70" y="335.82" font-size="10" fill="#5aa9e6" text-anchor="start" font-family="ui-monospace, monospace">@types/deep-eql</text><circle cx="62" cy="48.24" r="4.5" fill="#4ec9a4" fill-opacity="0.45" stroke="#4ec9a4" stroke-width="1"/><circle cx="168.57" cy="44" r="4.5" fill="#4ec9a4" fill-opacity="0.45" stroke="#4ec9a4" stroke-width="1"/><circle cx="62" cy="44" r="4.5" fill="#4ec9a4" fill-opacity="0.45" stroke="#4ec9a4" stroke-width="1"/><circle cx="62" cy="44" r="4.5" fill="#4ec9a4" fill-opacity="0.45" stroke="#4ec9a4" stroke-width="1"/><circle cx="62" cy="44" r="4.5" fill="#4ec9a4" fill-opacity="0.45" stroke="#4ec9a4" stroke-width="1"/><circle cx="62" cy="44" r="4.5" fill="#4ec9a4" fill-opacity="0.45" stroke="#4ec9a4" stroke-width="1"/><circle cx="62" cy="44" r="4.5" fill="#4ec9a4" fill-opacity="0.45" stroke="#4ec9a4" stroke-width="1"/><circle cx="62" cy="44" r="4.5" fill="#4ec9a4" fill-opacity="0.45" stroke="#4ec9a4" stroke-width="1"/><circle cx="62" cy="417.12" r="4.5" fill="#5aa9e6" fill-opacity="0.45" stroke="#5aa9e6" stroke-width="1"/><text x="70" y="420.62" font-size="10" fill="#5aa9e6" text-anchor="start" font-family="ui-monospace, monospace">assertion-error</text><circle cx="62" cy="56.72" r="4.5" fill="#4ec9a4" fill-opacity="0.45" stroke="#4ec9a4" stroke-width="1"/><circle cx="62" cy="357.76" r="4.5" fill="#5aa9e6" fill-opacity="0.45" stroke="#5aa9e6" stroke-width="1"/><text x="70" y="361.26" font-size="10" fill="#5aa9e6" text-anchor="start" font-family="ui-monospace, monospace">convert-source-map</text><circle cx="62" cy="82.16" r="4.5" fill="#4ec9a4" fill-opacity="0.45" stroke="#4ec9a4" stroke-width="1"/><circle cx="62" cy="44" r="4.5" fill="#4ec9a4" fill-opacity="0.45" stroke="#4ec9a4" stroke-width="1"/><circle cx="62" cy="44" r="4.5" fill="#4ec9a4" fill-opacity="0.45" stroke="#4ec9a4" stroke-width="1"/><circle cx="62" cy="328.08" r="4.5" fill="#5aa9e6" fill-opacity="0.45" stroke="#5aa9e6" stroke-width="1"/><text x="70" y="331.58" font-size="10" fill="#5aa9e6" text-anchor="start" font-family="ui-monospace, monospace">estree-walker</text><circle cx="62" cy="44" r="4.5" fill="#4ec9a4" fill-opacity="0.45" stroke="#4ec9a4" stroke-width="1"/><circle cx="62" cy="99.12" r="4.5" fill="#4ec9a4" fill-opacity="0.45" stroke="#4ec9a4" stroke-width="1"/><circle cx="62" cy="319.6" r="4.5" fill="#5aa9e6" fill-opacity="0.45" stroke="#5aa9e6" stroke-width="1"/><text x="70" y="323.1" font-size="10" fill="#5aa9e6" text-anchor="start" font-family="ui-monospace, monospace">fsevents</text><circle cx="62" cy="44" r="4.5" fill="#4ec9a4" fill-opacity="0.45" stroke="#4ec9a4" stroke-width="1"/><circle cx="62" cy="44" r="4.5" fill="#4ec9a4" fill-opacity="0.45" stroke="#4ec9a4" stroke-width="1"/><circle cx="62" cy="44" r="4.5" fill="#4ec9a4" fill-opacity="0.45" stroke="#4ec9a4" stroke-width="1"/><circle cx="62" cy="44" r="4.5" fill="#4ec9a4" fill-opacity="0.45" stroke="#4ec9a4" stroke-width="1"/><circle cx="62" cy="44" r="4.5" fill="#4ec9a4" fill-opacity="0.45" stroke="#4ec9a4" stroke-width="1"/><circle cx="62" cy="44" r="4.5" fill="#4ec9a4" fill-opacity="0.45" stroke="#4ec9a4" stroke-width="1"/><circle cx="62" cy="44" r="4.5" fill="#4ec9a4" fill-opacity="0.45" stroke="#4ec9a4" stroke-width="1"/><circle cx="62" cy="44" r="4.5" fill="#4ec9a4" fill-opacity="0.45" stroke="#4ec9a4" stroke-width="1"/><circle cx="62" cy="44" r="4.5" fill="#4ec9a4" fill-opacity="0.45" stroke="#4ec9a4" stroke-width="1"/><circle cx="62" cy="44" r="4.5" fill="#4ec9a4" fill-opacity="0.45" stroke="#4ec9a4" stroke-width="1"/><circle cx="62" cy="44" r="4.5" fill="#4ec9a4" fill-opacity="0.45" stroke="#4ec9a4" stroke-width="1"/><circle cx="62" cy="44" r="4.5" fill="#4ec9a4" fill-opacity="0.45" stroke="#4ec9a4" stroke-width="1"/><circle cx="474.74" cy="44" r="4.5" fill="#4ec9a4" fill-opacity="0.45" stroke="#4ec9a4" stroke-width="1"/><circle cx="178.74" cy="44" r="4.5" fill="#4ec9a4" fill-opacity="0.45" stroke="#4ec9a4" stroke-width="1"/><circle cx="62" cy="44" r="4.5" fill="#4ec9a4" fill-opacity="0.45" stroke="#4ec9a4" stroke-width="1"/><circle cx="62" cy="154.24" r="4.5" fill="#4ec9a4" fill-opacity="0.45" stroke="#4ec9a4" stroke-width="1"/><circle cx="62" cy="192.4" r="4.5" fill="#4ec9a4" fill-opacity="0.45" stroke="#4ec9a4" stroke-width="1"/><circle cx="62" cy="44" r="4.5" fill="#4ec9a4" fill-opacity="0.45" stroke="#4ec9a4" stroke-width="1"/><circle cx="62" cy="44" r="4.5" fill="#4ec9a4" fill-opacity="0.45" stroke="#4ec9a4" stroke-width="1"/><circle cx="109.66" cy="44" r="4.5" fill="#4ec9a4" fill-opacity="0.45" stroke="#4ec9a4" stroke-width="1"/><circle cx="62" cy="328.08" r="4.5" fill="#5aa9e6" fill-opacity="0.45" stroke="#5aa9e6" stroke-width="1"/><text x="70" y="331.58" font-size="10" fill="#5aa9e6" text-anchor="start" font-family="ui-monospace, monospace">siginfo</text><circle cx="62" cy="200.88" r="4.5" fill="#4ec9a4" fill-opacity="0.45" stroke="#4ec9a4" stroke-width="1"/><circle cx="62" cy="328.08" r="4.5" fill="#5aa9e6" fill-opacity="0.45" stroke="#5aa9e6" stroke-width="1"/><text x="70" y="331.58" font-size="10" fill="#5aa9e6" text-anchor="start" font-family="ui-monospace, monospace">stackback</text><circle cx="62" cy="44" r="4.5" fill="#4ec9a4" fill-opacity="0.45" stroke="#4ec9a4" stroke-width="1"/><circle cx="730.93" cy="44" r="4.5" fill="#e8b73a" fill-opacity="0.45" stroke="#e8b73a" stroke-width="1"/><text x="738.93" y="47.5" font-size="10" fill="#e8b73a" text-anchor="start" font-family="ui-monospace, monospace">tinybench</text><circle cx="62" cy="44" r="4.5" fill="#4ec9a4" fill-opacity="0.45" stroke="#4ec9a4" stroke-width="1"/><circle cx="62" cy="44" r="4.5" fill="#4ec9a4" fill-opacity="0.45" stroke="#4ec9a4" stroke-width="1"/><circle cx="62" cy="44" r="4.5" fill="#4ec9a4" fill-opacity="0.45" stroke="#4ec9a4" stroke-width="1"/><circle cx="62" cy="188.16" r="4.5" fill="#4ec9a4" fill-opacity="0.45" stroke="#4ec9a4" stroke-width="1"/><circle cx="480.21" cy="44" r="4.5" fill="#4ec9a4" fill-opacity="0.45" stroke="#4ec9a4" stroke-width="1"/><circle cx="687.04" cy="44" r="4.5" fill="#e8b73a" fill-opacity="0.45" stroke="#e8b73a" stroke-width="1"/><text x="695.04" y="47.5" font-size="10" fill="#e8b73a" text-anchor="start" font-family="ui-monospace, monospace">undici-types</text><circle cx="62" cy="44" r="4.5" fill="#4ec9a4" fill-opacity="0.45" stroke="#4ec9a4" stroke-width="1"/><circle cx="62" cy="44" r="4.5" fill="#4ec9a4" fill-opacity="0.45" stroke="#4ec9a4" stroke-width="1"/><circle cx="62" cy="44" r="4.5" fill="#4ec9a4" fill-opacity="0.45" stroke="#4ec9a4" stroke-width="1"/><circle cx="399" cy="166.96" r="4.5" fill="#4ec9a4" fill-opacity="0.45" stroke="#4ec9a4" stroke-width="1"/></svg>
